<svg xmlns="http://www.w3.org/2000/svg" xmlns:xlink="http://www.w3.org/1999/xlink"><symbol id="icon-audio">
<path fill-rule="evenodd" fill-opacity="0.8" fill="rgb(151, 152, 152)" d="M3.002,12.189 C1.345,12.189 0.002,10.846 0.002,9.191 L0.002,7.191 C0.002,5.536 1.345,4.193 3.002,4.193 L4.002,4.193 L9.002,0.194 L9.002,16.188 L4.002,12.189 L3.002,12.189 ZM13.002,8.192 C13.002,10.052 11.724,11.602 10.001,12.048 L10.001,9.914 C10.597,9.567 11.001,8.928 11.001,8.192 C11.001,7.453 10.597,6.815 10.001,6.470 L10.001,4.334 C11.724,4.780 13.002,6.330 13.002,8.192 Z"/>
</symbol><symbol id="icon-comment">
<path fill-rule="evenodd" fill-opacity="0.8" fill="rgb(151, 152, 152)" d="M12.191,12.175 L6.566,12.175 L4.691,14.987 L2.816,12.175 C1.263,12.175 0.003,10.916 0.003,9.364 L0.003,2.805 C0.003,1.252 1.263,-0.006 2.816,-0.006 L12.191,-0.006 C13.744,-0.006 15.003,1.252 15.003,2.805 L15.003,9.364 C15.003,10.916 13.744,12.175 12.191,12.175 Z"/>
</symbol><symbol id="icon-heart">
<path fill-rule="evenodd" fill-opacity="0.8" fill="rgb(151, 152, 152)" d="M14.821,7.120 L8.000,14.187 L1.179,7.120 C-0.383,5.558 -0.383,3.028 1.179,1.466 C2.741,-0.095 5.274,-0.095 6.836,1.466 L8.000,2.879 L9.164,1.466 C10.726,-0.095 13.259,-0.095 14.821,1.466 C16.383,3.028 16.383,5.558 14.821,7.120 Z"/>
</symbol><symbol id="icon-option">
<path fill-rule="evenodd" fill-opacity="0.8" fill="rgb(151, 152, 152)" d="M13.001,14.084 L3.002,14.084 C1.345,14.084 0.001,12.742 0.001,11.086 L0.001,6.088 C0.001,4.432 1.345,3.090 3.002,3.090 L3.762,3.090 C3.252,3.725 2.840,4.442 2.541,5.214 C2.225,5.382 2.002,5.705 2.002,6.088 L2.002,11.086 C2.002,11.638 2.449,12.086 3.002,12.086 L13.001,12.086 C13.554,12.086 14.001,11.638 14.001,11.086 L14.001,8.586 L16.001,7.088 L16.001,11.086 C16.001,12.742 14.659,14.084 13.001,14.084 ZM11.601,7.887 C11.425,8.019 11.213,8.088 11.001,8.088 C10.849,8.088 10.696,8.053 10.554,7.982 C10.215,7.812 10.001,7.467 10.001,7.088 L10.001,6.088 C7.390,6.088 5.175,7.759 4.350,10.086 C4.128,9.461 4.001,8.789 4.001,8.088 C4.001,4.776 6.688,2.090 10.001,2.090 L10.001,1.090 C10.001,0.712 10.215,0.366 10.554,0.196 C10.696,0.126 10.849,0.091 11.001,0.091 C11.213,0.091 11.425,0.158 11.601,0.291 L15.601,3.289 C15.853,3.478 16.001,3.774 16.001,4.089 C16.001,4.403 15.853,4.700 15.601,4.889 L11.601,7.887 Z"/>
</symbol></svg>